{
  "accessors": [
    {
      "bufferView": 2,
      "componentType": 5126,
      "count": 24,
      "max": [
        153.05799865722656,
        52.12229919433594,
        235.77000427246094
      ],
      "min": [
        151.64700317382813,
        52.12229919433594,
        234.41700744628906
      ],
      "type": "VEC3"
    },
    {
      "bufferView": 2,
      "byteOffset": 288,
      "componentType": 5126,
      "count": 24,
      "max": [
        -9.44899975010181e-32,
        -1.0,
        1.4120500016652493e-14
      ],
      "min": [
        -9.44899975010181e-32,
        -1.0,
        1.4120500016652493e-14
      ],
      "type": "VEC3"
    },
    {
      "bufferView": 1,
      "componentType": 5126,
      "count": 24,
      "max": [
        0.44094499945640564,
        0.44094499945640564
      ],
      "min": [
        -0.0,
        1.4210900454981155e-14
      ],
      "type": "VEC2"
    },
    {
      "bufferView": 0,
      "componentType": 5125,
      "count": 66,
      "type": "SCALAR"
    },
    {
      "bufferView": 2,
      "byteOffset": 576,
      "componentType": 5126,
      "count": 20,
      "max": [
        161.92799377441406,
        80.74690246582031,
        232.5279998779297
      ],
      "min": [
        71.09490203857422,
        77.62229919433594,
        37.28200149536133
      ],
      "type": "VEC3"
    },
    {
      "bufferView": 2,
      "byteOffset": 816,
      "componentType": 5126,
      "count": 20,
      "max": [
        1.0,
        1.0,
        0.0
      ],
      "min": [
        -1.0,
        -1.0,
        -1.0
      ],
      "type": "VEC3"
    },
    {
      "bufferView": 1,
      "byteOffset": 192,
      "componentType": 5126,
      "count": 20,
      "max": [
        10.906599998474121,
        12.66919994354248
      ],
      "min": [
        -2.9431800842285156,
        -1.3848700523376465
      ],
      "type": "VEC2"
    },
    {
      "bufferView": 0,
      "byteOffset": 264,
      "componentType": 5125,
      "count": 30,
      "type": "SCALAR"
    },
    {
      "bufferView": 2,
      "byteOffset": 1056,
      "componentType": 5126,
      "count": 121,
      "max": [
        103.53199768066406,
        54.62229919433594,
        245.88600158691406
      ],
      "min": [
        99.8469009399414,
        54.62229919433594,
        236.85499572753906
      ],
      "type": "VEC3"
    },
    {
      "bufferView": 2,
      "byteOffset": 2508,
      "componentType": 5126,
      "count": 121,
      "max": [
        -6.42352994204015e-17,
        -1.0,
        2.3605700727458157e-12
      ],
      "min": [
        -3.64088006773078e-16,
        -1.0,
        2.3604499431451043e-12
      ],
      "type": "VEC3"
    },
    {
      "bufferView": 1,
      "byteOffset": 352,
      "componentType": 5126,
      "count": 121,
      "max": [
        11.889300346374512,
        78.98919677734375
      ],
      "min": [
        10.737799644470215,
        76.04450225830078
      ],
      "type": "VEC2"
    },
    {
      "bufferView": 0,
      "byteOffset": 384,
      "componentType": 5125,
      "count": 351,
      "type": "SCALAR"
    },
    {
      "bufferView": 2,
      "byteOffset": 3960,
      "componentType": 5126,
      "count": 121,
      "max": [
        113.49700164794922,
        54.62229919433594,
        245.88600158691406
      ],
      "min": [
        109.81199645996094,
        54.62229919433594,
        236.85499572753906
      ],
      "type": "VEC3"
    },
    {
      "bufferView": 2,
      "byteOffset": 5412,
      "componentType": 5126,
      "count": 121,
      "max": [
        -6.42352994204015e-17,
        -1.0,
        2.3605700727458157e-12
      ],
      "min": [
        -3.64088006773078e-16,
        -1.0,
        2.3604499431451043e-12
      ],
      "type": "VEC3"
    },
    {
      "bufferView": 1,
      "byteOffset": 1320,
      "componentType": 5126,
      "count": 121,
      "max": [
        15.003000259399414,
        78.98919677734375
      ],
      "min": [
        13.851499557495117,
        76.04450225830078
      ],
      "type": "VEC2"
    },
    {
      "bufferView": 0,
      "byteOffset": 1788,
      "componentType": 5125,
      "count": 351,
      "type": "SCALAR"
    },
    {
      "bufferView": 2,
      "byteOffset": 6864,
      "componentType": 5126,
      "count": 8,
      "max": [
        136.11399841308594,
        54.62229919433594,
        246.11099243164063
      ],
      "min": [
        116.83899688720703,
        54.62229919433594,
        236.49600219726563
      ],
      "type": "VEC3"
    },
    {
      "bufferView": 2,
      "byteOffset": 6960,
      "componentType": 5126,
      "count": 8,
      "max": [
        -3.2109200027156297e-15,
        -1.0,
        5.5881101341300615e-15
      ],
      "min": [
        -3.2109200027156297e-15,
        -1.0,
        5.5881101341300615e-15
      ],
      "type": "VEC3"
    },
    {
      "bufferView": 1,
      "byteOffset": 2288,
      "componentType": 5126,
      "count": 8,
      "max": [
        22.06999969482422,
        79.0624008178711
      ],
      "min": [
        16.047199249267578,
        75.92769622802734
      ],
      "type": "VEC2"
    },
    {
      "bufferView": 0,
      "byteOffset": 3192,
      "componentType": 5125,
      "count": 24,
      "type": "SCALAR"
    },
    {
      "bufferView": 2,
      "byteOffset": 7056,
      "componentType": 5126,
      "count": 4,
      "max": [
        133.98599243164063,
        54.62229919433594,
        244.0709991455078
      ],
      "min": [
        118.96700286865234,
        54.62229919433594,
        238.53599548339844
      ],
      "type": "VEC3"
    },
    {
      "bufferView": 2,
      "byteOffset": 7104,
      "componentType": 5126,
      "count": 4,
      "max": [
        -4.650220197788529e-15,
        -1.0,
        8.617070307358286e-15
      ],
      "min": [
        -4.650220197788529e-15,
        -1.0,
        8.617070307358286e-15
      ],
      "type": "VEC3"
    },
    {
      "bufferView": 1,
      "byteOffset": 2352,
      "componentType": 5126,
      "count": 4,
      "max": [
        21.405000686645508,
        78.39739990234375
      ],
      "min": [
        16.712200164794922,
        76.59269714355469
      ],
      "type": "VEC2"
    },
    {
      "bufferView": 0,
      "byteOffset": 3288,
      "componentType": 5125,
      "count": 6,
      "type": "SCALAR"
    },
    {
      "bufferView": 2,
      "byteOffset": 7152,
      "componentType": 5126,
      "count": 72,
      "max": [
        149.2779998779297,
        52.12229919433594,
        235.77000427246094
      ],
      "min": [
        140.3070068359375,
        52.12229919433594,
        234.41700744628906
      ],
      "type": "VEC3"
    },
    {
      "bufferView": 2,
      "byteOffset": 8016,
      "componentType": 5126,
      "count": 72,
      "max": [
        -9.44899975010181e-32,
        -1.0,
        1.4120500016652493e-14
      ],
      "min": [
        -9.44899975010181e-32,
        -1.0,
        1.4120500016652493e-14
      ],
      "type": "VEC3"
    },
    {
      "bufferView": 1,
      "byteOffset": 2384,
      "componentType": 5126,
      "count": 72,
      "max": [
        0.44094499945640564,
        0.44094499945640564
      ],
      "min": [
        -0.0,
        1.4210900454981155e-14
      ],
      "type": "VEC2"
    },
    {
      "bufferView": 0,
      "byteOffset": 3312,
      "componentType": 5125,
      "count": 198,
      "type": "SCALAR"
    },
    {
      "bufferView": 2,
      "byteOffset": 8880,
      "componentType": 5126,
      "count": 96,
      "max": [
        168.802001953125,
        108.62200164794922,
        185.12100219726563
      ],
      "min": [
        64.22160339355469,
        50.62229919433594,
        71.80180358886719
      ],
      "type": "VEC3"
    },
    {
      "bufferView": 2,
      "byteOffset": 10032,
      "componentType": 5126,
      "count": 96,
      "max": [
        1.0,
        1.0,
        1.0
      ],
      "min": [
        -1.0,
        -1.0,
        -1.0
      ],
      "type": "VEC3"
    },
    {
      "bufferView": 1,
      "byteOffset": 2960,
      "componentType": 5126,
      "count": 96,
      "max": [
        22.8346004486084,
        36.947200775146484
      ],
      "min": [
        -22.8346004486084,
        -2.351649996942126e-17
      ],
      "type": "VEC2"
    },
    {
      "bufferView": 0,
      "byteOffset": 4104,
      "componentType": 5125,
      "count": 144,
      "type": "SCALAR"
    },
    {
      "bufferView": 2,
      "byteOffset": 11184,
      "componentType": 5126,
      "count": 999,
      "max": [
        167.54200744628906,
        116.16200256347656,
        260.82000732421875
      ],
      "min": [
        65.48159790039063,
        43.082298278808594,
        3.622499942779541
      ],
      "type": "VEC3"
    },
    {
      "bufferView": 2,
      "byteOffset": 23172,
      "componentType": 5126,
      "count": 999,
      "max": [
        1.0,
        1.0,
        1.0
      ],
      "min": [
        -1.0,
        -1.0,
        -1.0
      ],
      "type": "VEC3"
    },
    {
      "bufferView": 1,
      "byteOffset": 3728,
      "componentType": 5126,
      "count": 999,
      "max": [
        31.889799118041992,
        83.8582992553711
      ],
      "min": [
        -31.889799118041992,
        -20.211299896240234
      ],
      "type": "VEC2"
    },
    {
      "bufferView": 0,
      "byteOffset": 4680,
      "componentType": 5125,
      "count": 1971,
      "type": "SCALAR"
    },
    {
      "bufferView": 2,
      "byteOffset": 35160,
      "componentType": 5126,
      "count": 378,
      "max": [
        167.54200744628906,
        116.16200256347656,
        260.82000732421875
      ],
      "min": [
        65.48159790039063,
        43.082298278808594,
        -2.2204500726568125e-15
      ],
      "type": "VEC3"
    },
    {
      "bufferView": 2,
      "byteOffset": 39696,
      "componentType": 5126,
      "count": 378,
      "max": [
        1.0,
        1.0,
        1.0
      ],
      "min": [
        -1.0,
        -1.0,
        -1.0
      ],
      "type": "VEC3"
    },
    {
      "bufferView": 1,
      "byteOffset": 11720,
      "componentType": 5126,
      "count": 378,
      "max": [
        31.700899124145508,
        83.8582992553711
      ],
      "min": [
        -31.700899124145508,
        -6.842720194889199e-16
      ],
      "type": "VEC2"
    },
    {
      "bufferView": 0,
      "byteOffset": 12564,
      "componentType": 5125,
      "count": 1044,
      "type": "SCALAR"
    }
  ],
  "asset": {
    "extras": {
      "author": "eventdesignws (https://sketchfab.com/eventdesignws)",
      "license": "CC-BY-4.0 (http://creativecommons.org/licenses/by/4.0/)",
      "source": "https://sketchfab.com/3d-models/metal-detector-ws-4a6e132c3dbd403f97487914d2668f05",
      "title": "metal detector ws"
    },
    "generator": "Sketchfab-16.75.0",
    "version": "2.0"
  },
  "bufferViews": [
    {
      "buffer": 0,
      "byteLength": 16740,
      "name": "floatBufferViews",
      "target": 34963
    },
    {
      "buffer": 0,
      "byteLength": 14744,
      "byteOffset": 16740,
      "byteStride": 8,
      "name": "floatBufferViews",
      "target": 34962
    },
    {
      "buffer": 0,
      "byteLength": 44232,
      "byteOffset": 31484,
      "byteStride": 12,
      "name": "floatBufferViews",
      "target": 34962
    }
  ],
  "buffers": [
    {
      "byteLength": 75716,
      "uri": "scene.bin"
    }
  ],
  "extensionsUsed": [
    "KHR_materials_clearcoat",
    "KHR_materials_emissive_strength"
  ],
  "images": [
    {
      "uri": "textures/Screenshot_2025_08_12_071240_baseColor.jpeg"
    }
  ],
  "materials": [
    {
      "doubleSided": true,
      "extensions": {
        "KHR_materials_clearcoat": {
          "clearcoatFactor": 1.0,
          "clearcoatRoughnessFactor": 0.04
        }
      },
      "name": "M_0056_Yellow",
      "pbrMetallicRoughness": {
        "baseColorFactor": [
          1.0,
          1.0,
          0.0,
          1.0
        ],
        "metallicFactor": 0.0,
        "roughnessFactor": 0.0
      }
    },
    {
      "doubleSided": true,
      "emissiveFactor": [
        0.0145928078795037,
        0.5821034483910212,
        0.007741795732446836
      ],
      "extensions": {
        "KHR_materials_clearcoat": {
          "clearcoatFactor": 1.0,
          "clearcoatRoughnessFactor": 0.04
        },
        "KHR_materials_emissive_strength": {
          "emissiveStrength": 8.324732935077742
        }
      },
      "name": "M_0070_SpringGreen",
      "pbrMetallicRoughness": {
        "baseColorFactor": [
          0.0,
          0.7716471528655718,
          0.38431037636601667,
          1.0
        ],
        "metallicFactor": 0.0,
        "roughnessFactor": 0.0
      }
    },
    {
      "doubleSided": true,
      "name": "M_0137_Black",
      "pbrMetallicRoughness": {
        "baseColorFactor": [
          0.0,
          0.0,
          0.0,
          1.0
        ],
        "metallicFactor": 0.0
      }
    },
    {
      "doubleSided": true,
      "emissiveFactor": [
        0.0026462798604001965,
        0.3020525563957558,
        0.43372860685311976
      ],
      "extensions": {
        "KHR_materials_emissive_strength": {
          "emissiveStrength": 7.594819247371313
        }
      },
      "name": "Screenshot_2025_08_12_071240",
      "pbrMetallicRoughness": {
        "baseColorFactor": [
          0.4371033793334586,
          0.4371033793334586,
          0.4371033793334586,
          1.0
        ],
        "baseColorTexture": {
          "index": 0
        },
        "metallicFactor": 0.0
      }
    },
    {
      "doubleSided": true,
      "name": "material",
      "pbrMetallicRoughness": {
        "baseColorFactor": [
          0.21716461038647775,
          0.21716461038647775,
          0.21716461038647775,
          1.0
        ],
        "metallicFactor": 0.0,
        "roughnessFactor": 0.0
      }
    },
    {
      "doubleSided": true,
      "name": "material_5",
      "pbrMetallicRoughness": {
        "baseColorFactor": [
          0.013632841594610633,
          0.013632841594610633,
          0.013632841594610633,
          1.0
        ],
        "metallicFactor": 0.0
      }
    },
    {
      "doubleSided": true,
      "name": "material_6",
      "pbrMetallicRoughness": {
        "baseColorFactor": [
          1.0,
          0.0,
          0.0,
          1.0
        ],
        "metallicFactor": 0.0
      }
    },
    {
      "doubleSided": true,
      "name": "material_7",
      "pbrMetallicRoughness": {
        "baseColorFactor": [
          0.1555026404802512,
          0.3110059005423038,
          0.0,
          1.0
        ],
        "metallicFactor": 0.0
      }
    },
    {
      "doubleSided": true,
      "extensions": {
        "KHR_materials_clearcoat": {
          "clearcoatFactor": 1.0,
          "clearcoatRoughnessFactor": 0.04
        }
      },
      "name": "material_8",
      "pbrMetallicRoughness": {
        "baseColorFactor": [
          0.901961,
          0.901961,
          0.901961,
          1.0
        ],
        "metallicFactor": 0.0,
        "roughnessFactor": 0.0
      }
    },
    {
      "doubleSided": true,
      "emissiveFactor": [
        0.7331363106076371,
        0.8815814006712541,
        0.08493956216948108
      ],
      "extensions": {
        "KHR_materials_emissive_strength": {
          "emissiveStrength": 6.560774856453873
        }
      },
      "name": "material_9",
      "pbrMetallicRoughness": {
        "baseColorFactor": [
          0.3999999999999998,
          1.0,
          1.0,
          1.0
        ],
        "metallicFactor": 0.0
      }
    }
  ],
  "meshes": [
    {
      "name": "Object_0",
      "primitives": [
        {
          "attributes": {
            "NORMAL": 1,
            "POSITION": 0,
            "TEXCOORD_0": 2
          },
          "indices": 3,
          "material": 0,
          "mode": 4
        }
      ]
    },
    {
      "name": "Object_1",
      "primitives": [
        {
          "attributes": {
            "NORMAL": 5,
            "POSITION": 4,
            "TEXCOORD_0": 6
          },
          "indices": 7,
          "material": 3,
          "mode": 4
        }
      ]
    },
    {
      "name": "Object_2",
      "primitives": [
        {
          "attributes": {
            "NORMAL": 9,
            "POSITION": 8,
            "TEXCOORD_0": 10
          },
          "indices": 11,
          "material": 6,
          "mode": 4
        }
      ]
    },
    {
      "name": "Object_3",
      "primitives": [
        {
          "attributes": {
            "NORMAL": 13,
            "POSITION": 12,
            "TEXCOORD_0": 14
          },
          "indices": 15,
          "material": 7,
          "mode": 4
        }
      ]
    },
    {
      "name": "Object_4",
      "primitives": [
        {
          "attributes": {
            "NORMAL": 17,
            "POSITION": 16,
            "TEXCOORD_0": 18
          },
          "indices": 19,
          "material": 8,
          "mode": 4
        }
      ]
    },
    {
      "name": "Object_5",
      "primitives": [
        {
          "attributes": {
            "NORMAL": 21,
            "POSITION": 20,
            "TEXCOORD_0": 22
          },
          "indices": 23,
          "material": 9,
          "mode": 4
        }
      ]
    },
    {
      "name": "Object_6",
      "primitives": [
        {
          "attributes": {
            "NORMAL": 25,
            "POSITION": 24,
            "TEXCOORD_0": 26
          },
          "indices": 27,
          "material": 1,
          "mode": 4
        }
      ]
    },
    {
      "name": "Object_7",
      "primitives": [
        {
          "attributes": {
            "NORMAL": 29,
            "POSITION": 28,
            "TEXCOORD_0": 30
          },
          "indices": 31,
          "material": 2,
          "mode": 4
        }
      ]
    },
    {
      "name": "Object_8",
      "primitives": [
        {
          "attributes": {
            "NORMAL": 33,
            "POSITION": 32,
            "TEXCOORD_0": 34
          },
          "indices": 35,
          "material": 4,
          "mode": 4
        }
      ]
    },
    {
      "name": "Object_9",
      "primitives": [
        {
          "attributes": {
            "NORMAL": 37,
            "POSITION": 36,
            "TEXCOORD_0": 38
          },
          "indices": 39,
          "material": 5,
          "mode": 4
        }
      ]
    }
  ],
  "nodes": [
    {
      "children": [
        1
      ],
      "matrix": [
        0.009999999776482582,
        0.0,
        0.0,
        0.0,
        0.0,
        2.2204459996194763e-18,
        -0.009999999776482582,
        0.0,
        0.0,
        0.009999999776482582,
        2.2204459996194763e-18,
        0.0,
        0.0,
        0.0,
        0.0,
        1.0
      ],
      "name": "Sketchfab_model"
    },
    {
      "children": [
        2,
        3,
        4,
        5,
        6,
        7,
        8,
        9,
        10,
        11
      ],
      "name": "metal detector ws.obj.cleaner.materialmerger.gles"
    },
    {
      "mesh": 0,
      "name": "Object_2"
    },
    {
      "mesh": 1,
      "name": "Object_3"
    },
    {
      "mesh": 2,
      "name": "Object_4"
    },
    {
      "mesh": 3,
      "name": "Object_5"
    },
    {
      "mesh": 4,
      "name": "Object_6"
    },
    {
      "mesh": 5,
      "name": "Object_7"
    },
    {
      "mesh": 6,
      "name": "Object_8"
    },
    {
      "mesh": 7,
      "name": "Object_9"
    },
    {
      "mesh": 8,
      "name": "Object_10"
    },
    {
      "mesh": 9,
      "name": "Object_11"
    }
  ],
  "samplers": [
    {
      "magFilter": 9729,
      "minFilter": 9987,
      "wrapS": 10497,
      "wrapT": 10497
    }
  ],
  "scene": 0,
  "scenes": [
    {
      "name": "Sketchfab_Scene",
      "nodes": [
        0
      ]
    }
  ],
  "textures": [
    {
      "sampler": 0,
      "source": 0
    }
  ]
}
