{
  "accessors": [
    {
      "bufferView": 2,
      "componentType": 5126,
      "count": 461,
      "max": [
        0.03503219783306122,
        5.128836631774902,
        0.035032179206609726
      ],
      "min": [
        -0.03503216430544853,
        4.743151664733887,
        -0.035032205283641815
      ],
      "type": "VEC3"
    },
    {
      "bufferView": 2,
      "byteOffset": 5532,
      "componentType": 5126,
      "count": 461,
      "max": [
        1.0,
        0.6857031583786011,
        1.0
      ],
      "min": [
        -1.0,
        -1.0,
        -1.0
      ],
      "type": "VEC3"
    },
    {
      "bufferView": 1,
      "componentType": 5126,
      "count": 461,
      "max": [
        1.0,
        1.0
      ],
      "min": [
        0.0,
        0.24999994039535522
      ],
      "type": "VEC2"
    },
    {
      "bufferView": 0,
      "componentType": 5125,
      "count": 2490,
      "type": "SCALAR"
    },
    {
      "bufferView": 2,
      "byteOffset": 11064,
      "componentType": 5126,
      "count": 318,
      "max": [
        0.06412281095981598,
        4.808185577392578,
        0.06412280350923538
      ],
      "min": [
        -0.06412281095981598,
        4.713897705078125,
        -0.06412281095981598
      ],
      "type": "VEC3"
    },
    {
      "bufferView": 2,
      "byteOffset": 14880,
      "componentType": 5126,
      "count": 318,
      "max": [
        1.0,
        1.0,
        1.0
      ],
      "min": [
        -1.0,
        -0.6857031583786011,
        -1.0
      ],
      "type": "VEC3"
    },
    {
      "bufferView": 1,
      "byteOffset": 3688,
      "componentType": 5126,
      "count": 318,
      "max": [
        1.0,
        1.0
      ],
      "min": [
        0.0,
        0.0
      ],
      "type": "VEC2"
    },
    {
      "bufferView": 0,
      "byteOffset": 9960,
      "componentType": 5125,
      "count": 1356,
      "type": "SCALAR"
    },
    {
      "bufferView": 2,
      "byteOffset": 18696,
      "componentType": 5126,
      "count": 578,
      "max": [
        0.05525309965014458,
        5.1005964279174805,
        0.05525309965014458
      ],
      "min": [
        -0.05525309965014458,
        5.044658660888672,
        -0.05525309965014458
      ],
      "type": "VEC3"
    },
    {
      "bufferView": 2,
      "byteOffset": 25632,
      "componentType": 5126,
      "count": 578,
      "max": [
        0.9951362609863281,
        0.8808041214942932,
        0.9951460957527161
      ],
      "min": [
        -0.9951460957527161,
        -0.8807311654090881,
        -0.9951460957527161
      ],
      "type": "VEC3"
    },
    {
      "bufferView": 1,
      "byteOffset": 6232,
      "componentType": 5126,
      "count": 578,
      "max": [
        1.0,
        0.9900000095367432
      ],
      "min": [
        0.0,
        0.0
      ],
      "type": "VEC2"
    },
    {
      "bufferView": 0,
      "byteOffset": 15384,
      "componentType": 5125,
      "count": 1908,
      "type": "SCALAR"
    },
    {
      "bufferView": 2,
      "byteOffset": 32568,
      "componentType": 5126,
      "count": 144,
      "max": [
        1.0,
        7.2938995361328125,
        0.08445379883050919
      ],
      "min": [
        -1.0,
        5.107290744781494,
        -0.08709295839071274
      ],
      "type": "VEC3"
    },
    {
      "bufferView": 2,
      "byteOffset": 34296,
      "componentType": 5126,
      "count": 144,
      "max": [
        1.0,
        1.0,
        1.0
      ],
      "min": [
        -1.0,
        -1.0,
        -1.0
      ],
      "type": "VEC3"
    },
    {
      "bufferView": 1,
      "byteOffset": 10856,
      "componentType": 5126,
      "count": 144,
      "max": [
        0.0,
        1.0
      ],
      "min": [
        0.0,
        1.0
      ],
      "type": "VEC2"
    },
    {
      "bufferView": 0,
      "byteOffset": 23016,
      "componentType": 5125,
      "count": 708,
      "type": "SCALAR"
    },
    {
      "bufferView": 2,
      "byteOffset": 36024,
      "componentType": 5126,
      "count": 354,
      "max": [
        1.0,
        7.2938995361328125,
        0.11799277365207672
      ],
      "min": [
        -1.0,
        5.118169784545898,
        0.08130864799022675
      ],
      "type": "VEC3"
    },
    {
      "bufferView": 2,
      "byteOffset": 40272,
      "componentType": 5126,
      "count": 354,
      "max": [
        1.0,
        1.0,
        0.11069706827402115
      ],
      "min": [
        -1.0,
        -1.0,
        -0.9998784065246582
      ],
      "type": "VEC3"
    },
    {
      "bufferView": 1,
      "byteOffset": 12008,
      "componentType": 5126,
      "count": 354,
      "max": [
        0.0,
        1.0
      ],
      "min": [
        0.0,
        1.0
      ],
      "type": "VEC2"
    },
    {
      "bufferView": 0,
      "byteOffset": 25848,
      "componentType": 5125,
      "count": 1938,
      "type": "SCALAR"
    },
    {
      "bufferView": 2,
      "byteOffset": 44520,
      "componentType": 5126,
      "count": 581,
      "max": [
        0.8765790462493896,
        0.8154870271682739,
        0.9662384986877441
      ],
      "min": [
        -0.8765791654586792,
        -0.02804693579673767,
        -0.5710095167160034
      ],
      "type": "VEC3"
    },
    {
      "bufferView": 2,
      "byteOffset": 51492,
      "componentType": 5126,
      "count": 581,
      "max": [
        1.0,
        0.7510011196136475,
        0.866019070148468
      ],
      "min": [
        -1.0,
        -0.9972741007804871,
        -0.866019070148468
      ],
      "type": "VEC3"
    },
    {
      "bufferView": 1,
      "byteOffset": 14840,
      "componentType": 5126,
      "count": 581,
      "max": [
        0.75,
        1.0
      ],
      "min": [
        0.0,
        0.125
      ],
      "type": "VEC2"
    },
    {
      "bufferView": 0,
      "byteOffset": 33600,
      "componentType": 5125,
      "count": 1149,
      "type": "SCALAR"
    },
    {
      "bufferView": 2,
      "byteOffset": 58464,
      "componentType": 5126,
      "count": 121,
      "max": [
        0.04929128289222717,
        6.219697952270508,
        0.5737026929855347
      ],
      "min": [
        -0.04929128289222717,
        5.662497043609619,
        0.04440435767173767
      ],
      "type": "VEC3"
    },
    {
      "bufferView": 2,
      "byteOffset": 59916,
      "componentType": 5126,
      "count": 121,
      "max": [
        1.0,
        1.0,
        1.0
      ],
      "min": [
        -1.0,
        -1.0,
        -1.0
      ],
      "type": "VEC3"
    },
    {
      "bufferView": 1,
      "byteOffset": 19488,
      "componentType": 5126,
      "count": 121,
      "max": [
        0.875,
        1.0
      ],
      "min": [
        0.0,
        0.0
      ],
      "type": "VEC2"
    },
    {
      "bufferView": 0,
      "byteOffset": 38196,
      "componentType": 5125,
      "count": 276,
      "type": "SCALAR"
    },
    {
      "bufferView": 2,
      "byteOffset": 61368,
      "componentType": 5126,
      "count": 86,
      "max": [
        0.17208299040794373,
        6.213026523590088,
        0.5360867977142334
      ],
      "min": [
        0.0006469167419709265,
        6.145325660705566,
        0.4545019268989563
      ],
      "type": "VEC3"
    },
    {
      "bufferView": 2,
      "byteOffset": 62400,
      "componentType": 5126,
      "count": 86,
      "max": [
        1.0,
        1.0,
        1.0
      ],
      "min": [
        -1.0,
        -1.0,
        -1.0
      ],
      "type": "VEC3"
    },
    {
      "bufferView": 1,
      "byteOffset": 20456,
      "componentType": 5126,
      "count": 86,
      "max": [
        1.0,
        1.0
      ],
      "min": [
        0.25,
        0.0
      ],
      "type": "VEC2"
    },
    {
      "bufferView": 0,
      "byteOffset": 39300,
      "componentType": 5125,
      "count": 186,
      "type": "SCALAR"
    },
    {
      "bufferView": 2,
      "byteOffset": 63432,
      "componentType": 5126,
      "count": 120,
      "max": [
        0.13708145916461945,
        6.206583499908447,
        0.5160099864006042
      ],
      "min": [
        0.0006469167419709265,
        6.151768684387207,
        0.4609449505805969
      ],
      "type": "VEC3"
    },
    {
      "bufferView": 2,
      "byteOffset": 64872,
      "componentType": 5126,
      "count": 120,
      "max": [
        1.0,
        1.0,
        1.0
      ],
      "min": [
        -1.0,
        -1.0,
        -1.0
      ],
      "type": "VEC3"
    },
    {
      "bufferView": 1,
      "byteOffset": 21144,
      "componentType": 5126,
      "count": 120,
      "max": [
        0.6012077331542969,
        0.6189810037612915
      ],
      "min": [
        0.3987922668457031,
        0.5255208015441895
      ],
      "type": "VEC2"
    },
    {
      "bufferView": 0,
      "byteOffset": 40044,
      "componentType": 5125,
      "count": 180,
      "type": "SCALAR"
    },
    {
      "bufferView": 2,
      "byteOffset": 66312,
      "componentType": 5126,
      "count": 24,
      "max": [
        0.11359689384698868,
        6.197292804718018,
        0.5295568704605103
      ],
      "min": [
        -0.11230305582284927,
        6.159549713134766,
        0.5216272473335266
      ],
      "type": "VEC3"
    },
    {
      "bufferView": 2,
      "byteOffset": 66600,
      "componentType": 5126,
      "count": 24,
      "max": [
        1.0,
        1.0,
        1.0
      ],
      "min": [
        -1.0,
        -1.0,
        -1.0
      ],
      "type": "VEC3"
    },
    {
      "bufferView": 1,
      "byteOffset": 22104,
      "componentType": 5126,
      "count": 24,
      "max": [
        1.0,
        1.0
      ],
      "min": [
        0.0,
        0.0
      ],
      "type": "VEC2"
    },
    {
      "bufferView": 0,
      "byteOffset": 40764,
      "componentType": 5125,
      "count": 36,
      "type": "SCALAR"
    },
    {
      "bufferView": 2,
      "byteOffset": 66888,
      "componentType": 5126,
      "count": 86,
      "max": [
        0.0,
        6.213026523590088,
        0.5360867977142334
      ],
      "min": [
        -0.17143607139587402,
        6.145325660705566,
        0.4545019268989563
      ],
      "type": "VEC3"
    },
    {
      "bufferView": 2,
      "byteOffset": 67920,
      "componentType": 5126,
      "count": 86,
      "max": [
        1.0,
        1.0,
        1.0
      ],
      "min": [
        -1.0,
        -1.0,
        -1.0
      ],
      "type": "VEC3"
    },
    {
      "bufferView": 1,
      "byteOffset": 22296,
      "componentType": 5126,
      "count": 86,
      "max": [
        0.75,
        1.0
      ],
      "min": [
        0.0,
        0.0
      ],
      "type": "VEC2"
    },
    {
      "bufferView": 0,
      "byteOffset": 40908,
      "componentType": 5125,
      "count": 186,
      "type": "SCALAR"
    },
    {
      "bufferView": 2,
      "byteOffset": 68952,
      "componentType": 5126,
      "count": 120,
      "max": [
        0.0,
        6.206583499908447,
        0.5160099864006042
      ],
      "min": [
        -0.13643454015254974,
        6.151768684387207,
        0.4609449505805969
      ],
      "type": "VEC3"
    },
    {
      "bufferView": 2,
      "byteOffset": 70392,
      "componentType": 5126,
      "count": 120,
      "max": [
        1.0,
        1.0,
        1.0
      ],
      "min": [
        -1.0,
        -1.0,
        -1.0
      ],
      "type": "VEC3"
    },
    {
      "bufferView": 1,
      "byteOffset": 22984,
      "componentType": 5126,
      "count": 120,
      "max": [
        0.6012077331542969,
        0.6189810037612915
      ],
      "min": [
        0.3987922668457031,
        0.5255208015441895
      ],
      "type": "VEC2"
    },
    {
      "bufferView": 0,
      "byteOffset": 41652,
      "componentType": 5125,
      "count": 180,
      "type": "SCALAR"
    },
    {
      "bufferView": 2,
      "byteOffset": 71832,
      "componentType": 5126,
      "count": 834,
      "max": [
        0.10650411248207092,
        4.537159442901611,
        0.10650411248207092
      ],
      "min": [
        -0.10650411248207092,
        -0.01329601276665926,
        -0.10650411248207092
      ],
      "type": "VEC3"
    },
    {
      "bufferView": 2,
      "byteOffset": 81840,
      "componentType": 5126,
      "count": 834,
      "max": [
        0.9915009140968323,
        0.9904530644416809,
        0.9915009140968323
      ],
      "min": [
        -0.9915009140968323,
        -0.6857031583786011,
        -0.9915009140968323
      ],
      "type": "VEC3"
    },
    {
      "bufferView": 1,
      "byteOffset": 23944,
      "componentType": 5126,
      "count": 834,
      "max": [
        1.0,
        0.9900000095367432
      ],
      "min": [
        0.0,
        0.0
      ],
      "type": "VEC2"
    },
    {
      "bufferView": 0,
      "byteOffset": 42372,
      "componentType": 5125,
      "count": 4596,
      "type": "SCALAR"
    },
    {
      "bufferView": 2,
      "byteOffset": 91848,
      "componentType": 5126,
      "count": 229,
      "max": [
        0.0798485279083252,
        4.71559476852417,
        0.0798485279083252
      ],
      "min": [
        -0.0798485279083252,
        4.515771389007568,
        -0.0798485279083252
      ],
      "type": "VEC3"
    },
    {
      "bufferView": 2,
      "byteOffset": 94596,
      "componentType": 5126,
      "count": 229,
      "max": [
        0.9451975226402283,
        0.6857031583786011,
        0.9451975226402283
      ],
      "min": [
        -0.9451975226402283,
        -0.8915812969207764,
        -0.9451975226402283
      ],
      "type": "VEC3"
    },
    {
      "bufferView": 1,
      "byteOffset": 30616,
      "componentType": 5126,
      "count": 229,
      "max": [
        1.0,
        0.9900000095367432
      ],
      "min": [
        0.0,
        0.0
      ],
      "type": "VEC2"
    },
    {
      "bufferView": 0,
      "byteOffset": 60756,
      "componentType": 5125,
      "count": 948,
      "type": "SCALAR"
    },
    {
      "bufferView": 2,
      "byteOffset": 97344,
      "componentType": 5126,
      "count": 554,
      "max": [
        0.11794890463352203,
        5.0428667068481445,
        0.11794889718294144
      ],
      "min": [
        -0.11794890463352203,
        4.878791332244873,
        -0.11794889718294144
      ],
      "type": "VEC3"
    },
    {
      "bufferView": 2,
      "byteOffset": 103992,
      "componentType": 5126,
      "count": 554,
      "max": [
        0.9951460957527161,
        0.9855687618255615,
        0.9951363801956177
      ],
      "min": [
        -0.9951460957527161,
        -0.9472125172615051,
        -0.9951363801956177
      ],
      "type": "VEC3"
    },
    {
      "bufferView": 1,
      "byteOffset": 32448,
      "componentType": 5126,
      "count": 554,
      "max": [
        1.0,
        0.9899348616600037
      ],
      "min": [
        0.0,
        0.0
      ],
      "type": "VEC2"
    },
    {
      "bufferView": 0,
      "byteOffset": 64548,
      "componentType": 5125,
      "count": 3060,
      "type": "SCALAR"
    },
    {
      "bufferView": 2,
      "byteOffset": 110640,
      "componentType": 5126,
      "count": 429,
      "max": [
        0.23464323580265045,
        0.9540514945983887,
        0.23464323580265045
      ],
      "min": [
        -0.23464323580265045,
        0.6247602105140686,
        -0.23464323580265045
      ],
      "type": "VEC3"
    },
    {
      "bufferView": 2,
      "byteOffset": 115788,
      "componentType": 5126,
      "count": 429,
      "max": [
        0.9368992447853088,
        0.9032795429229736,
        0.9368992447853088
      ],
      "min": [
        -0.9368992447853088,
        -0.729830265045166,
        -0.9368992447853088
      ],
      "type": "VEC3"
    },
    {
      "bufferView": 1,
      "byteOffset": 36880,
      "componentType": 5126,
      "count": 429,
      "max": [
        1.0,
        0.5
      ],
      "min": [
        0.0,
        0.0
      ],
      "type": "VEC2"
    },
    {
      "bufferView": 0,
      "byteOffset": 76788,
      "componentType": 5125,
      "count": 2484,
      "type": "SCALAR"
    }
  ],
  "asset": {
    "extras": {
      "author": "kelemon824 (https://sketchfab.com/kelemon824)",
      "license": "CC-BY-4.0 (http://creativecommons.org/licenses/by/4.0/)",
      "source": "https://sketchfab.com/3d-models/low-poly-phone-tripod-dbc083688e104e5882c6db83a062635d",
      "title": "Low poly phone tripod"
    },
    "generator": "Sketchfab-0.13.0",
    "version": "2.0"
  },
  "bufferViews": [
    {
      "buffer": 0,
      "byteLength": 86724,
      "name": "floatBufferViews",
      "target": 34963
    },
    {
      "buffer": 0,
      "byteLength": 40312,
      "byteOffset": 86724,
      "byteStride": 8,
      "name": "floatBufferViews",
      "target": 34962
    },
    {
      "buffer": 0,
      "byteLength": 120936,
      "byteOffset": 127036,
      "byteStride": 12,
      "name": "floatBufferViews",
      "target": 34962
    }
  ],
  "buffers": [
    {
      "byteLength": 247972,
      "uri": "scene.bin"
    }
  ],
  "extensionsUsed": [
    "KHR_materials_emissive_strength"
  ],
  "materials": [
    {
      "doubleSided": true,
      "name": "gray_material",
      "pbrMetallicRoughness": {
        "baseColorFactor": [
          0.28423,
          0.28423,
          0.28423,
          1.0
        ],
        "roughnessFactor": 0.5
      }
    },
    {
      "doubleSided": true,
      "name": "black_material",
      "pbrMetallicRoughness": {
        "baseColorFactor": [
          0.0,
          0.0,
          0.0,
          1.0
        ]
      }
    },
    {
      "doubleSided": true,
      "emissiveFactor": [
        1.0,
        1.0,
        1.0
      ],
      "extensions": {
        "KHR_materials_emissive_strength": {
          "emissiveStrength": 10.0
        }
      },
      "name": "light_material",
      "pbrMetallicRoughness": {
        "baseColorFactor": [
          0.0,
          0.0,
          0.0,
          1.0
        ]
      }
    },
    {
      "doubleSided": true,
      "name": "red_material",
      "pbrMetallicRoughness": {
        "baseColorFactor": [
          0.800007,
          0.0421777,
          0.0313264,
          1.0
        ],
        "metallicFactor": 0.0,
        "roughnessFactor": 0.5
      }
    }
  ],
  "meshes": [
    {
      "name": "Object_0",
      "primitives": [
        {
          "attributes": {
            "NORMAL": 1,
            "POSITION": 0,
            "TEXCOORD_0": 2
          },
          "indices": 3,
          "material": 0,
          "mode": 4
        }
      ]
    },
    {
      "name": "Object_1",
      "primitives": [
        {
          "attributes": {
            "NORMAL": 5,
            "POSITION": 4,
            "TEXCOORD_0": 6
          },
          "indices": 7,
          "material": 1,
          "mode": 4
        }
      ]
    },
    {
      "name": "Object_2",
      "primitives": [
        {
          "attributes": {
            "NORMAL": 9,
            "POSITION": 8,
            "TEXCOORD_0": 10
          },
          "indices": 11,
          "material": 0,
          "mode": 4
        }
      ]
    },
    {
      "name": "Object_3",
      "primitives": [
        {
          "attributes": {
            "NORMAL": 13,
            "POSITION": 12,
            "TEXCOORD_0": 14
          },
          "indices": 15,
          "material": 1,
          "mode": 4
        }
      ]
    },
    {
      "name": "Object_4",
      "primitives": [
        {
          "attributes": {
            "NORMAL": 17,
            "POSITION": 16,
            "TEXCOORD_0": 18
          },
          "indices": 19,
          "material": 2,
          "mode": 4
        }
      ]
    },
    {
      "name": "Object_5",
      "primitives": [
        {
          "attributes": {
            "NORMAL": 21,
            "POSITION": 20,
            "TEXCOORD_0": 22
          },
          "indices": 23,
          "material": 0,
          "mode": 4
        }
      ]
    },
    {
      "name": "Object_6",
      "primitives": [
        {
          "attributes": {
            "NORMAL": 25,
            "POSITION": 24,
            "TEXCOORD_0": 26
          },
          "indices": 27,
          "material": 1,
          "mode": 4
        }
      ]
    },
    {
      "name": "Object_7",
      "primitives": [
        {
          "attributes": {
            "NORMAL": 29,
            "POSITION": 28,
            "TEXCOORD_0": 30
          },
          "indices": 31,
          "material": 1,
          "mode": 4
        }
      ]
    },
    {
      "name": "Object_8",
      "primitives": [
        {
          "attributes": {
            "NORMAL": 33,
            "POSITION": 32,
            "TEXCOORD_0": 34
          },
          "indices": 35,
          "material": 3,
          "mode": 4
        }
      ]
    },
    {
      "name": "Object_9",
      "primitives": [
        {
          "attributes": {
            "NORMAL": 37,
            "POSITION": 36,
            "TEXCOORD_0": 38
          },
          "indices": 39,
          "material": 0,
          "mode": 4
        }
      ]
    },
    {
      "name": "Object_10",
      "primitives": [
        {
          "attributes": {
            "NORMAL": 41,
            "POSITION": 40,
            "TEXCOORD_0": 42
          },
          "indices": 43,
          "material": 1,
          "mode": 4
        }
      ]
    },
    {
      "name": "Object_11",
      "primitives": [
        {
          "attributes": {
            "NORMAL": 45,
            "POSITION": 44,
            "TEXCOORD_0": 46
          },
          "indices": 47,
          "material": 3,
          "mode": 4
        }
      ]
    },
    {
      "name": "Object_12",
      "primitives": [
        {
          "attributes": {
            "NORMAL": 49,
            "POSITION": 48,
            "TEXCOORD_0": 50
          },
          "indices": 51,
          "material": 1,
          "mode": 4
        }
      ]
    },
    {
      "name": "Object_13",
      "primitives": [
        {
          "attributes": {
            "NORMAL": 53,
            "POSITION": 52,
            "TEXCOORD_0": 54
          },
          "indices": 55,
          "material": 0,
          "mode": 4
        }
      ]
    },
    {
      "name": "Object_14",
      "primitives": [
        {
          "attributes": {
            "NORMAL": 57,
            "POSITION": 56,
            "TEXCOORD_0": 58
          },
          "indices": 59,
          "material": 1,
          "mode": 4
        }
      ]
    },
    {
      "name": "Object_15",
      "primitives": [
        {
          "attributes": {
            "NORMAL": 61,
            "POSITION": 60,
            "TEXCOORD_0": 62
          },
          "indices": 63,
          "material": 0,
          "mode": 4
        }
      ]
    }
  ],
  "nodes": [
    {
      "children": [
        1
      ],
      "matrix": [
        1.0,
        0.0,
        0.0,
        0.0,
        0.0,
        2.220446049250313e-16,
        -1.0,
        0.0,
        0.0,
        1.0,
        2.220446049250313e-16,
        0.0,
        0.0,
        0.0,
        0.0,
        1.0
      ],
      "name": "Sketchfab_model"
    },
    {
      "children": [
        2
      ],
      "name": "root"
    },
    {
      "children": [
        3
      ],
      "matrix": [
        1.0,
        0.0,
        0.0,
        0.0,
        0.0,
        2.220446049250313e-16,
        1.0,
        0.0,
        0.0,
        -1.0,
        2.220446049250313e-16,
        0.0,
        0.0,
        0.0,
        0.0,
        1.0
      ],
      "name": "GLTF_SceneRootNode"
    },
    {
      "children": [
        4,
        6,
        8,
        10,
        12,
        14,
        16,
        18,
        22,
        25,
        27,
        29,
        31
      ],
      "matrix": [
        4.300695896148682,
        0.0,
        0.0,
        0.0,
        0.0,
        4.300695896148682,
        0.0,
        0.0,
        0.0,
        0.0,
        4.300695896148682,
        0.0,
        0.0,
        0.0,
        0.0,
        1.0
      ],
      "name": "controls_13"
    },
    {
      "children": [
        5
      ],
      "matrix": [
        0.23252050578594208,
        0.0,
        0.0,
        0.0,
        0.0,
        0.23252050578594208,
        0.0,
        0.0,
        0.0,
        0.0,
        0.23252050578594208,
        0.0,
        0.0,
        0.0,
        0.0,
        1.0
      ],
      "name": "axis_0"
    },
    {
      "mesh": 0,
      "name": "Object_5"
    },
    {
      "children": [
        7
      ],
      "matrix": [
        0.23252050578594208,
        0.0,
        0.0,
        0.0,
        0.0,
        0.23252050578594208,
        0.0,
        0.0,
        0.0,
        0.0,
        0.23252050578594208,
        0.0,
        0.0,
        0.0,
        0.0,
        1.0
      ],
      "name": "cradle_1"
    },
    {
      "mesh": 1,
      "name": "Object_7"
    },
    {
      "children": [
        9
      ],
      "matrix": [
        0.23252050578594208,
        0.0,
        0.0,
        0.0,
        0.0,
        0.23252050578594208,
        0.0,
        0.0,
        0.0,
        0.0,
        0.23252050578594208,
        0.0,
        0.0,
        0.0,
        0.0,
        1.0
      ],
      "name": "knob_2"
    },
    {
      "mesh": 2,
      "name": "Object_9"
    },
    {
      "children": [
        11
      ],
      "matrix": [
        0.23252050578594208,
        0.0,
        0.0,
        0.0,
        0.0,
        0.23252050578594208,
        0.0,
        0.0,
        0.0,
        0.0,
        0.23252050578594208,
        0.0,
        0.0,
        0.0,
        0.0,
        1.0
      ],
      "name": "light_base_3"
    },
    {
      "mesh": 3,
      "name": "Object_11"
    },
    {
      "children": [
        13
      ],
      "matrix": [
        0.23252050578594208,
        0.0,
        0.0,
        0.0,
        0.0,
        0.23252050578594208,
        0.0,
        0.0,
        0.0,
        0.0,
        0.23252050578594208,
        0.0,
        0.0,
        0.0,
        0.0,
        1.0
      ],
      "name": "light_panel_4"
    },
    {
      "mesh": 4,
      "name": "Object_13"
    },
    {
      "children": [
        15
      ],
      "matrix": [
        0.23252050578594208,
        0.0,
        0.0,
        0.0,
        0.0,
        0.23252050578594208,
        0.0,
        0.0,
        0.0,
        0.0,
        0.23252050578594208,
        0.0,
        0.0,
        0.0,
        0.0,
        1.0
      ],
      "name": "paws_5"
    },
    {
      "mesh": 5,
      "name": "Object_15"
    },
    {
      "children": [
        17
      ],
      "matrix": [
        0.23252050578594208,
        0.0,
        0.0,
        0.0,
        0.0,
        0.23252050578594208,
        0.0,
        0.0,
        0.0,
        0.0,
        0.23252050578594208,
        0.0,
        0.0,
        0.0,
        0.0,
        1.0
      ],
      "name": "phone_holder_base_6"
    },
    {
      "mesh": 6,
      "name": "Object_17"
    },
    {
      "children": [
        19,
        20,
        21
      ],
      "matrix": [
        0.23252050578594208,
        0.0,
        0.0,
        0.0,
        0.0,
        0.23252050578594208,
        0.0,
        0.0,
        0.0,
        0.0,
        0.23252050578594208,
        0.0,
        0.0,
        0.0,
        0.0,
        1.0
      ],
      "name": "phone_holder_l_7"
    },
    {
      "mesh": 7,
      "name": "Object_19"
    },
    {
      "mesh": 8,
      "name": "Object_20"
    },
    {
      "mesh": 9,
      "name": "Object_21"
    },
    {
      "children": [
        23,
        24
      ],
      "matrix": [
        0.23252050578594208,
        0.0,
        0.0,
        0.0,
        0.0,
        0.23252050578594208,
        0.0,
        0.0,
        0.0,
        0.0,
        0.23252050578594208,
        0.0,
        0.0,
        0.0,
        0.0,
        1.0
      ],
      "name": "phone_holder_r_8"
    },
    {
      "mesh": 10,
      "name": "Object_23"
    },
    {
      "mesh": 11,
      "name": "Object_24"
    },
    {
      "children": [
        26
      ],
      "matrix": [
        0.23252050578594208,
        0.0,
        0.0,
        0.0,
        0.0,
        0.23252050578594208,
        0.0,
        0.0,
        0.0,
        0.0,
        0.23252050578594208,
        0.0,
        0.0,
        0.0,
        0.0,
        1.0
      ],
      "name": "post_9"
    },
    {
      "mesh": 12,
      "name": "Object_26"
    },
    {
      "children": [
        28
      ],
      "matrix": [
        0.23252050578594208,
        0.0,
        0.0,
        0.0,
        0.0,
        0.23252050578594208,
        0.0,
        0.0,
        0.0,
        0.0,
        0.23252050578594208,
        0.0,
        0.0,
        0.0,
        0.0,
        1.0
      ],
      "name": "post_head_10"
    },
    {
      "mesh": 13,
      "name": "Object_28"
    },
    {
      "children": [
        30
      ],
      "matrix": [
        0.23252050578594208,
        0.0,
        0.0,
        0.0,
        0.0,
        0.23252050578594208,
        0.0,
        0.0,
        0.0,
        0.0,
        0.23252050578594208,
        0.0,
        0.0,
        0.0,
        0.0,
        1.0
      ],
      "name": "screw_11"
    },
    {
      "mesh": 14,
      "name": "Object_30"
    },
    {
      "children": [
        32
      ],
      "matrix": [
        0.23252050578594208,
        0.0,
        0.0,
        0.0,
        0.0,
        0.23252050578594208,
        0.0,
        0.0,
        0.0,
        0.0,
        0.23252050578594208,
        0.0,
        0.0,
        0.0,
        0.0,
        1.0
      ],
      "name": "tripod_12"
    },
    {
      "mesh": 15,
      "name": "Object_32"
    }
  ],
  "scene": 0,
  "scenes": [
    {
      "name": "Sketchfab_Scene",
      "nodes": [
        0
      ]
    }
  ]
}
